<?xml version="1.0" encoding="UTF-8"?>
<svg id="Camada_2" data-name="Camada 2" xmlns="http://www.w3.org/2000/svg" viewBox="0 0 557.04 235.44">
  <defs>
    <style>
      .cls-1 {
        fill: #601682;
      }
    </style>
  </defs>
  <g id="Camada_1-2" data-name="Camada 1">
    <g id="BORDA">
      <rect y="1.44" width="24.48" height="90" rx="3" ry="3"/>
      <path d="M108.24,91.44c-1.66,0-3-1.34-3-3v-44.83l-18.13,27.52c-.56.84-1.5,1.35-2.51,1.35h-.48c-1.01,0-1.95-.51-2.51-1.35l-17.9-27.16v44.47c0,1.66-1.34,3-3,3h-18.24c-1.66,0-3-1.34-3-3V4.44c0-1.66,1.34-3,3-3h19.92c1.04,0,2,.54,2.55,1.42l19.53,31.42L104.01,2.86c.55-.88,1.51-1.42,2.55-1.42h19.92c1.66,0,3,1.34,3,3v84c0,1.66-1.34,3-3,3h-18.24Z"/>
      <path d="M146.64,91.44c-1.66,0-3-1.34-3-3V4.44c0-1.66,1.34-3,3-3h34.32c5.35,0,10.23.76,14.5,2.27,4.33,1.53,8.07,3.74,11.12,6.57,3.06,2.84,5.45,6.28,7.09,10.23,1.63,3.91,2.45,8.28,2.45,12.97v.24c0,5.31-.99,10.06-2.93,14.13-1.95,4.07-4.67,7.53-8.08,10.28-3.37,2.71-7.34,4.77-11.82,6.12-4.38,1.32-9.13,1.99-14.12,1.99h-11.04v22.2c0,1.66-1.34,3-3,3h-18.48ZM179.76,43.8c3.88,0,6.73-.93,8.73-2.83,1.96-1.87,2.91-4.12,2.91-6.89v-.24c0-3.23-.95-5.57-2.9-7.14-2.12-1.71-5.18-2.58-9.1-2.58h-11.28v19.68h11.64Z"/>
      <path d="M267.6,92.88c-6.85,0-13.26-1.23-19.04-3.65-5.77-2.42-10.83-5.73-15.04-9.86-4.23-4.14-7.56-9.08-9.91-14.66-2.35-5.58-3.53-11.64-3.53-18.02v-.24c0-6.38,1.21-12.45,3.6-18.04,2.38-5.57,5.72-10.53,9.94-14.74,4.22-4.22,9.31-7.59,15.13-10.01,5.82-2.42,12.24-3.65,19.09-3.65s13.25,1.23,19.04,3.65c5.77,2.42,10.83,5.74,15.04,9.86,4.23,4.14,7.56,9.07,9.91,14.66,2.35,5.59,3.53,11.65,3.53,18.02v.24c0,6.38-1.21,12.45-3.6,18.04-2.38,5.57-5.72,10.53-9.94,14.74-4.22,4.22-9.31,7.59-15.13,10.01-5.82,2.42-12.25,3.65-19.09,3.65ZM267.6,23.04c-3.32,0-6.37.6-9.05,1.78-2.69,1.19-5.02,2.84-6.92,4.92-1.94,2.12-3.48,4.61-4.58,7.41-1.1,2.79-1.65,5.84-1.65,9.04v.24c0,3.22.56,6.28,1.66,9.11,1.09,2.82,2.66,5.31,4.66,7.42,2,2.11,4.4,3.8,7.1,5.03,2.67,1.22,5.71,1.83,9.02,1.83s6.28-.6,9-1.79c2.72-1.18,5.06-2.84,6.97-4.92,1.94-2.11,3.48-4.61,4.58-7.41,1.1-2.79,1.65-5.84,1.65-9.04v-.24c0-3.21-.56-6.28-1.66-9.12-1.09-2.82-2.66-5.32-4.66-7.42-2-2.1-4.41-3.8-7.15-5.03-2.72-1.22-5.74-1.84-8.97-1.84Z"/>
      <path d="M379.8,91.44c-1,0-1.94-.5-2.49-1.33l-17.11-25.55h-9.92v23.88c0,1.66-1.34,3-3,3h-18.48c-1.66,0-3-1.34-3-3V4.44c0-1.66,1.34-3,3-3h38.4c11.41,0,20.36,3.16,26.6,9.4,5.36,5.36,8.08,12.53,8.08,21.32v.24c0,7.45-1.89,13.66-5.61,18.46-2.9,3.74-6.55,6.72-10.87,8.88l18.47,27.01c.63.92.7,2.11.18,3.09s-1.54,1.6-2.65,1.6h-21.6ZM366,42.24c3.78,0,6.65-.84,8.51-2.49,1.78-1.58,2.65-3.67,2.65-6.39v-.24c0-3.05-.88-5.22-2.69-6.64-2.01-1.57-4.98-2.36-8.83-2.36h-15.36v18.12h15.72Z"/>
      <path d="M435.12,91.44c-1.66,0-3-1.34-3-3V24.48h-22.56c-1.66,0-3-1.34-3-3V4.44c0-1.66,1.34-3,3-3h69.6c1.66,0,3,1.34,3,3v17.04c0,1.66-1.34,3-3,3h-22.56v63.96c0,1.66-1.34,3-3,3h-18.48Z"/>
      <path d="M523.32,92.64c-6.71,0-13.39-1.17-19.85-3.48-6.5-2.32-12.49-5.93-17.8-10.74-1.19-1.08-1.32-2.91-.29-4.15l10.92-13.08c.59-.71,1.45-1.08,2.3-1.08.67,0,1.33.22,1.89.67,3.63,2.95,7.39,5.32,11.17,7.04,3.62,1.65,7.67,2.49,12.02,2.49,3.22,0,5.68-.54,7.29-1.6,1.29-.85,1.83-1.84,1.83-3.32v-.24c0-.74-.12-1.38-.37-1.88-.11-.23-.45-.71-1.45-1.36-1.05-.67-2.59-1.38-4.57-2.1-2.09-.76-4.89-1.58-8.3-2.43-4.32-1.05-8.32-2.26-11.87-3.58-3.72-1.38-6.95-3.13-9.59-5.19-2.76-2.16-4.94-4.88-6.46-8.1-1.51-3.19-2.27-7.13-2.27-11.72v-.24c0-4.26.82-8.18,2.42-11.64,1.6-3.45,3.88-6.47,6.77-8.98,2.88-2.49,6.33-4.42,10.27-5.74,3.87-1.3,8.18-1.96,12.81-1.96,6.47,0,12.52.99,17.99,2.93,5.45,1.94,10.52,4.77,15.08,8.4,1.23.98,1.5,2.75.6,4.05l-9.6,13.92c-.58.84-1.52,1.3-2.47,1.3-.58,0-1.17-.17-1.68-.52-3.58-2.43-7.11-4.37-10.49-5.77-3.22-1.32-6.47-1.99-9.66-1.99-2.86,0-5.02.51-6.26,1.47-1.37,1.06-1.54,2.08-1.54,2.85v.24c0,.87.15,1.59.44,2.15.17.34.61.87,1.68,1.5,1.15.68,2.82,1.35,4.95,2,2.32.71,5.3,1.54,8.86,2.49,4.36,1.15,8.32,2.47,11.76,3.91,3.6,1.51,6.7,3.37,9.21,5.53,2.62,2.25,4.63,4.93,5.97,7.97,1.33,3.02,2,6.61,2,10.69v.24c0,4.58-.86,8.74-2.55,12.37-1.7,3.64-4.1,6.74-7.14,9.22-2.99,2.43-6.58,4.31-10.68,5.58-4.02,1.24-8.51,1.87-13.35,1.87Z"/>
      <path class="cls-1" d="M158.58,235.44c-1.66,0-3-1.34-3-3v-84c0-1.66,1.34-3,3-3h34.32c5.35,0,10.23.76,14.5,2.27,4.33,1.53,8.07,3.74,11.12,6.57,3.06,2.84,5.45,6.28,7.09,10.23,1.63,3.91,2.45,8.28,2.45,12.97v.24c0,5.31-.99,10.06-2.93,14.13-1.95,4.07-4.67,7.53-8.08,10.28-3.37,2.71-7.34,4.77-11.82,6.12-4.38,1.32-9.13,1.99-14.12,1.99h-11.04v22.2c0,1.66-1.34,3-3,3h-18.48ZM191.7,187.8c3.88,0,6.73-.93,8.73-2.83,1.96-1.87,2.91-4.12,2.91-6.89v-.24c0-3.23-.95-5.57-2.9-7.14-2.12-1.71-5.18-2.58-9.1-2.58h-11.28v19.68h11.64Z"/>
      <path class="cls-1" d="M238.74,235.44c-1.66,0-3-1.34-3-3v-84c0-1.66,1.34-3,3-3h34.32c5.35,0,10.23.76,14.5,2.27,4.33,1.53,8.07,3.74,11.12,6.57,3.06,2.84,5.45,6.28,7.09,10.23,1.63,3.91,2.45,8.28,2.45,12.97v.24c0,5.31-.99,10.06-2.93,14.13-1.95,4.07-4.67,7.53-8.08,10.28-3.37,2.71-7.34,4.77-11.82,6.12-4.38,1.32-9.13,1.99-14.12,1.99h-11.04v22.2c0,1.66-1.34,3-3,3h-18.48ZM271.86,187.8c3.88,0,6.73-.93,8.73-2.83,1.96-1.87,2.91-4.12,2.91-6.89v-.24c0-3.23-.95-5.57-2.9-7.14-2.12-1.71-5.18-2.58-9.1-2.58h-11.28v19.68h11.64Z"/>
      <path class="cls-1" d="M377.82,235.44c-.94,0-1.82-.44-2.39-1.18l-35.29-46.33v44.51c0,1.66-1.34,3-3,3h-18.24c-1.66,0-3-1.34-3-3v-84c0-1.66,1.34-3,3-3h17.04c.94,0,1.82.44,2.39,1.18l33.97,44.64v-42.82c0-1.66,1.34-3,3-3h18.24c1.66,0,3,1.34,3,3v84c0,1.66-1.34,3-3,3h-15.72Z"/>
    </g>
    <g>
      <path d="M3,4.44h18.48v84H3V4.44Z"/>
      <path d="M42.48,4.44h19.92l22.08,35.52L106.56,4.44h19.92v84h-18.24v-54.84l-23.64,35.88h-.48l-23.4-35.52v54.48h-18.24V4.44Z"/>
      <path d="M146.64,4.44h34.32c5.04,0,9.54.7,13.5,2.1,3.96,1.4,7.32,3.38,10.08,5.94,2.76,2.56,4.88,5.62,6.36,9.18,1.48,3.56,2.22,7.5,2.22,11.82v.24c0,4.88-.88,9.16-2.64,12.84-1.76,3.68-4.18,6.76-7.26,9.24-3.08,2.48-6.68,4.34-10.8,5.58-4.12,1.24-8.54,1.86-13.26,1.86h-14.04v25.2h-18.48V4.44ZM179.76,46.8c4.64,0,8.24-1.22,10.8-3.66,2.56-2.44,3.84-5.46,3.84-9.06v-.24c0-4.16-1.34-7.32-4.02-9.48-2.68-2.16-6.34-3.24-10.98-3.24h-14.28v25.68h14.64Z"/>
      <path d="M267.6,89.88c-6.48,0-12.44-1.14-17.88-3.42-5.44-2.28-10.14-5.36-14.1-9.24-3.96-3.88-7.04-8.44-9.24-13.68-2.2-5.24-3.3-10.86-3.3-16.86v-.24c0-6,1.12-11.62,3.36-16.86,2.24-5.24,5.34-9.84,9.3-13.8s8.68-7.08,14.16-9.36c5.48-2.28,11.46-3.42,17.94-3.42s12.44,1.14,17.88,3.42c5.44,2.28,10.14,5.36,14.1,9.24,3.96,3.88,7.04,8.44,9.24,13.68,2.2,5.24,3.3,10.86,3.3,16.86v.24c0,6-1.12,11.62-3.36,16.86-2.24,5.24-5.34,9.84-9.3,13.8s-8.68,7.08-14.16,9.36c-5.48,2.28-11.46,3.42-17.94,3.42ZM267.84,72.84c3.68,0,7.08-.68,10.2-2.04,3.12-1.36,5.78-3.24,7.98-5.64,2.2-2.4,3.92-5.18,5.16-8.34,1.24-3.16,1.86-6.54,1.86-10.14v-.24c0-3.6-.62-7-1.86-10.2-1.24-3.2-3-6-5.28-8.4-2.28-2.4-4.98-4.3-8.1-5.7-3.12-1.4-6.52-2.1-10.2-2.1s-7.18.68-10.26,2.04c-3.08,1.36-5.72,3.24-7.92,5.64-2.2,2.4-3.92,5.18-5.16,8.34-1.24,3.16-1.86,6.54-1.86,10.14v.24c0,3.6.62,7,1.86,10.2,1.24,3.2,3,6,5.28,8.4,2.28,2.4,4.96,4.3,8.04,5.7,3.08,1.4,6.5,2.1,10.26,2.1Z"/>
      <path d="M328.8,4.44h38.4c10.64,0,18.8,2.84,24.48,8.52,4.8,4.8,7.2,11.2,7.2,19.2v.24c0,6.8-1.66,12.34-4.98,16.62-3.32,4.28-7.66,7.42-13.02,9.42l20.52,30h-21.6l-18-26.88h-14.52v26.88h-18.48V4.44ZM366,45.24c4.56,0,8.06-1.08,10.5-3.24,2.44-2.16,3.66-5.04,3.66-8.64v-.24c0-4-1.28-7-3.84-9-2.56-2-6.12-3-10.68-3h-18.36v24.12h18.72Z"/>
      <path d="M435.12,21.48h-25.56V4.44h69.6v17.04h-25.56v66.96h-18.48V21.48Z"/>
      <path d="M523.32,89.64c-6.4,0-12.68-1.1-18.84-3.3-6.16-2.2-11.76-5.58-16.8-10.14l10.92-13.08c3.84,3.12,7.78,5.6,11.82,7.44,4.04,1.84,8.46,2.76,13.26,2.76,3.84,0,6.82-.7,8.94-2.1,2.12-1.4,3.18-3.34,3.18-5.82v-.24c0-1.2-.22-2.26-.66-3.18-.44-.92-1.28-1.78-2.53-2.58-1.24-.8-2.97-1.6-5.17-2.4-2.21-.8-5.07-1.64-8.6-2.52-4.25-1.04-8.1-2.2-11.55-3.48-3.45-1.28-6.38-2.86-8.78-4.74-2.41-1.88-4.27-4.22-5.6-7.02-1.32-2.8-1.99-6.28-1.99-10.44v-.24c0-3.84.71-7.3,2.15-10.38,1.43-3.08,3.44-5.74,6.02-7.98,2.58-2.24,5.67-3.96,9.26-5.16,3.58-1.2,7.54-1.8,11.86-1.8,6.16,0,11.82.92,16.98,2.76,5.16,1.84,9.9,4.48,14.22,7.92l-9.6,13.92c-3.76-2.56-7.44-4.58-11.04-6.06-3.6-1.48-7.2-2.22-10.8-2.22s-6.3.7-8.1,2.1c-1.8,1.4-2.7,3.14-2.7,5.22v.24c0,1.36.26,2.54.78,3.54.52,1,1.46,1.9,2.83,2.7,1.36.8,3.23,1.56,5.6,2.28,2.37.72,5.35,1.56,8.96,2.52,4.25,1.12,8.04,2.38,11.37,3.78,3.33,1.4,6.13,3.08,8.42,5.04,2.29,1.96,4.01,4.26,5.17,6.9s1.75,5.8,1.75,9.48v.24c0,4.16-.76,7.86-2.27,11.1-1.51,3.24-3.62,5.96-6.32,8.16-2.7,2.2-5.93,3.88-9.68,5.04-3.75,1.16-7.9,1.74-12.46,1.74Z"/>
      <path class="cls-1" d="M158.58,148.44h34.32c5.04,0,9.54.7,13.5,2.1,3.96,1.4,7.32,3.38,10.08,5.94,2.76,2.56,4.88,5.62,6.36,9.18,1.48,3.56,2.22,7.5,2.22,11.82v.24c0,4.88-.88,9.16-2.64,12.84-1.76,3.68-4.18,6.76-7.26,9.24-3.08,2.48-6.68,4.34-10.8,5.58-4.12,1.24-8.54,1.86-13.26,1.86h-14.04v25.2h-18.48v-84ZM191.7,190.8c4.64,0,8.24-1.22,10.8-3.66,2.56-2.44,3.84-5.46,3.84-9.06v-.24c0-4.16-1.34-7.32-4.02-9.48-2.68-2.16-6.34-3.24-10.98-3.24h-14.28v25.68h14.64Z"/>
      <path class="cls-1" d="M238.74,148.44h34.32c5.04,0,9.54.7,13.5,2.1,3.96,1.4,7.32,3.38,10.08,5.94,2.76,2.56,4.88,5.62,6.36,9.18,1.48,3.56,2.22,7.5,2.22,11.82v.24c0,4.88-.88,9.16-2.64,12.84-1.76,3.68-4.18,6.76-7.26,9.24-3.08,2.48-6.68,4.34-10.8,5.58-4.12,1.24-8.54,1.86-13.26,1.86h-14.04v25.2h-18.48v-84ZM271.86,190.8c4.64,0,8.24-1.22,10.8-3.66,2.56-2.44,3.84-5.46,3.84-9.06v-.24c0-4.16-1.34-7.32-4.02-9.48-2.68-2.16-6.34-3.24-10.98-3.24h-14.28v25.68h14.64Z"/>
      <path class="cls-1" d="M318.9,148.44h17.04l39.36,51.72v-51.72h18.24v84h-15.72l-40.68-53.4v53.4h-18.24v-84Z"/>
    </g>
  </g>
</svg>