<?xml version="1.0" encoding="UTF-8"?>
<svg id="Camada_1" xmlns="http://www.w3.org/2000/svg" version="1.1" viewBox="0 0 800 150.2">
  <!-- Generator: Adobe Illustrator 29.3.1, SVG Export Plug-In . SVG Version: 2.1.0 Build 151)  -->
  <defs>
    <style>
      .st0 {
        fill: #fff;
      }

      .st1 {
        fill: #7f23af;
      }

      .st2 {
        fill: #601682;
      }
    </style>
  </defs>
  <rect class="st2" width="800" height="150.2"/>
  <circle class="st1" cx="132.4" cy="44.5" r="35"/>
  <circle class="st1" cx="57.9" cy="13" r="10.5"/>
  <circle class="st1" cx="282.5" cy="25.7" r="10.5"/>
  <circle class="st1" cx="224.5" cy="128.7" r="10.5"/>
  <circle class="st1" cx="142.5" cy="93.7" r="10.5"/>
  <circle class="st1" cx="177.5" cy="63.7" r="10.5"/>
  <path class="st1" d="M50.8,150.2h-29c-3.5-5.7-3.5-13.2.7-18.9,5.5-7.6,16.1-9.3,23.7-3.8,7.2,5.3,9.1,15.2,4.5,22.7h0Z"/>
  <circle class="st1" cx="113.5" cy="118.2" r="17"/>
  <circle class="st1" cx="192" cy="129.2" r="17"/>
  <circle class="st1" cx="578" cy="94.2" r="17"/>
  <circle class="st1" cx="619" cy="62.2" r="17"/>
  <circle class="st1" cx="68.7" cy="106.8" r="24"/>
  <circle class="st1" cx="398" cy="88.2" r="24"/>
  <circle class="st1" cx="92.8" cy="82.2" r="6"/>
  <circle class="st1" cx="163" cy="118.2" r="6"/>
  <circle class="st1" cx="178" cy="98.2" r="6"/>
  <circle class="st1" cx="203" cy="91.2" r="6"/>
  <circle class="st1" cx="235" cy="59.2" r="6"/>
  <circle class="st1" cx="485.1" cy="31.2" r="6"/>
  <circle class="st1" cx="483" cy="9.2" r="6"/>
  <circle class="st1" cx="428" cy="72.2" r="6"/>
  <circle class="st1" cx="433" cy="97.2" r="6"/>
  <circle class="st1" cx="58.6" cy="69.7" r="6"/>
  <circle class="st1" cx="270" cy="91.2" r="6"/>
  <circle class="st1" cx="301" cy="43.2" r="6"/>
  <circle class="st1" cx="157" cy="138.2" r="6"/>
  <circle class="st1" cx="212" cy="70.2" r="6"/>
  <circle class="st1" cx="491" cy="80.2" r="6"/>
  <path class="st1" d="M73.9,150.2h-11.4c-.6-1.8-.3-3.8.9-5.4,1.9-2.7,5.7-3.3,8.4-1.3,2.2,1.6,3,4.3,2.2,6.7h0Z"/>
  <circle class="st1" cx="19.4" cy="53.5" r="6"/>
  <circle class="st1" cx="19.4" cy="93.5" r="17"/>
  <path class="st1" d="M8.4,35.2c-2.9.6-5.8.4-8.4-.4V2.3c.5-.2,1.1-.3,1.7-.4C10.9,0,19.8,6,21.7,15.2c1.9,9.2-4.1,18.2-13.3,20Z"/>
  <path class="st1" d="M738.1,0c-4.2,14.6-17.7,25.2-33.6,25.2S675.2,14.6,670.9,0h67.2,0Z"/>
  <path class="st1" d="M800,50.7v59.9c-5.2,3.2-11.4,5-18,5-19.3,0-34.9-15.6-34.9-34.9s15.6-34.9,34.9-34.9,12.7,1.8,18,5h0Z"/>
  <path class="st1" d="M697.8,133.5c0,5.9-1.2,11.5-3.3,16.7h-81.2c-2.1-5.1-3.3-10.8-3.3-16.7,0-24.2,19.6-43.9,43.9-43.9s43.9,19.6,43.9,43.9h0Z"/>
  <path class="st1" d="M627.8.4c0,13.3-10.8,24-24,24s-24-10.8-24-24,0-.1,0-.2h48c0,0,0,.1,0,.2Z"/>
  <circle class="st1" cx="747.7" cy="6.9" r="6"/>
  <circle class="st1" cx="739.7" cy="32.8" r="6"/>
  <circle class="st1" cx="635.7" cy="30.8" r="6"/>
  <circle class="st1" cx="658.7" cy="56.8" r="6"/>
  <path class="st1" d="M770.6,149.5c0,.2,0,.5,0,.7h-11.9c0-.2,0-.5,0-.7,0-3.3,2.7-6,6-6s6,2.7,6,6Z"/>
  <circle class="st1" cx="781.6" cy="133.5" r="6"/>
  <circle class="st1" cx="760.7" cy="123.6" r="6"/>
  <circle class="st1" cx="641.7" cy="77.6" r="6"/>
  <circle class="st1" cx="715.8" cy="38.8" r="6"/>
  <circle class="st1" cx="664.8" cy="30.8" r="6"/>
  <circle class="st1" cx="697.9" cy="78.7" r="17"/>
  <circle class="st1" cx="723.8" cy="129.6" r="17"/>
  <path class="st1" d="M562.2,8.5c0,19.3-15.7,35-35,35s-35-15.7-35-35S492.5,2.7,493.2,0h67.9c.7,2.7,1,5.6,1,8.5Z"/>
  <path class="st1" d="M520.2,150.2h-87.7c.8-23.6,20.1-42.4,43.9-42.4s43.1,18.9,43.9,42.4Z"/>
  <path class="st1" d="M450.2,18.5c0,13.2-10.8,24-24,24s-24-10.8-24-24S405.6,4.4,410.9,0h30.5c5.3,4.4,8.7,11.1,8.7,18.5Z"/>
  <circle class="st1" cx="570" cy="25" r="6"/>
  <circle class="st1" cx="562.1" cy="50.9" r="6"/>
  <path class="st1" d="M609.8,150.2h-11.6c.6-2.6,3-4.6,5.8-4.6s5.2,1.9,5.8,4.6Z"/>
  <circle class="st1" cx="583" cy="141.7" r="6"/>
  <circle class="st1" cx="538.1" cy="56.9" r="6"/>
  <circle class="st1" cx="520.3" cy="96.9" r="17"/>
  <path class="st1" d="M563,150.2h-33.5c-1.3-8.9,4.5-17.3,13.4-19.1,9.2-1.9,18.1,4.1,20,13.3.4,2,.4,3.9.2,5.8h0Z"/>
  <path class="st1" d="M374.2,8.5c0,19.3-15.7,35-35,35s-35-15.7-35-35,.4-5.8,1-8.5h67.9c.7,2.7,1,5.6,1,8.5h0Z"/>
  <path class="st1" d="M332.2,150.2h-87.6c1.2-23.2,20.3-41.6,43.8-41.6s42.6,18.4,43.8,41.6Z"/>
  <path class="st1" d="M262.2,18.5c0,13.2-10.8,24-24,24s-24-10.8-24-24,3.4-14.1,8.7-18.5h30.6c5.3,4.4,8.7,11.1,8.7,18.5Z"/>
  <circle class="st1" cx="382.1" cy="25.8" r="6"/>
  <circle class="st1" cx="374.1" cy="51.7" r="6"/>
  <path class="st1" d="M421.6,150.2h-11.1c.9-2.2,3-3.7,5.5-3.7s4.6,1.5,5.5,3.7Z"/>
  <circle class="st1" cx="395.1" cy="142.5" r="6"/>
  <circle class="st1" cx="350.2" cy="57.7" r="6"/>
  <circle class="st1" cx="332.3" cy="97.7" r="17"/>
  <circle class="st1" cx="238.3" cy="88.7" r="17"/>
  <circle class="st1" cx="195.3" cy="31.7" r="16.9"/>
  <circle class="st1" cx="294.3" cy="66.7" r="17"/>
  <circle class="st1" cx="456.3" cy="71.7" r="17"/>
  <path class="st1" d="M375.1,150.2h-33.8c-.9-8.6,4.9-16.5,13.5-18.3,9.2-1.9,18.1,4.1,20,13.3.3,1.7.4,3.4.3,5Z"/>
  <g>
    <path class="st0" d="M79.4,87.3v-22.4h10.2c2.4,0,4.6.5,6.4,1.4,1.9.9,3.3,2.2,4.4,3.9,1,1.7,1.6,3.6,1.6,5.9s-.5,4.2-1.6,5.9c-1,1.7-2.5,3-4.4,3.9-1.9.9-4,1.4-6.4,1.4h-10.2ZM84.6,83h4.7c1.5,0,2.8-.3,3.9-.8s2-1.4,2.6-2.4c.6-1.1.9-2.3.9-3.7s-.3-2.7-.9-3.7c-.6-1-1.5-1.9-2.6-2.4-1.1-.6-2.4-.8-3.9-.8h-4.7v14Z"/>
    <path class="st0" d="M113.6,87.5c-1.8,0-3.4-.4-4.8-1.2-1.4-.8-2.5-1.8-3.3-3.2-.8-1.3-1.2-2.9-1.2-4.6s.4-3.3,1.2-4.6c.8-1.3,1.9-2.4,3.3-3.1,1.4-.8,3-1.1,4.8-1.1s3.5.4,4.9,1.1c1.4.8,2.5,1.8,3.4,3.1.8,1.3,1.2,2.9,1.2,4.6s-.4,3.3-1.2,4.6c-.8,1.3-1.9,2.4-3.4,3.1-1.4.8-3.1,1.2-4.9,1.2ZM113.6,83.4c.9,0,1.6-.2,2.3-.6.7-.4,1.2-.9,1.6-1.6.4-.7.6-1.6.6-2.6s-.2-1.9-.6-2.6c-.4-.7-.9-1.2-1.6-1.6-.7-.4-1.4-.6-2.2-.6s-1.6.2-2.2.6c-.7.4-1.2.9-1.6,1.6-.4.7-.6,1.6-.6,2.6s.2,1.8.6,2.6c.4.7.9,1.3,1.6,1.6.7.4,1.4.6,2.2.6Z"/>
    <path class="st0" d="M133.5,74.3v-3.8h11.9v3.8h-11.9ZM136.1,87.3v-17.6c0-2,.6-3.5,1.7-4.7,1.2-1.2,2.8-1.7,4.9-1.7s1.4,0,2.1.2c.7.1,1.3.4,1.7.7l-1.3,3.6c-.3-.2-.6-.3-.9-.4-.3-.1-.7-.2-1.1-.2-.7,0-1.3.2-1.7.6-.4.4-.6,1-.6,1.9v1.6l.2,2.1v13.8h-5Z"/>
    <path class="st0" d="M155.8,87.5c-1.8,0-3.4-.4-4.8-1.2-1.4-.8-2.5-1.8-3.3-3.2-.8-1.3-1.2-2.9-1.2-4.6s.4-3.3,1.2-4.6c.8-1.3,1.9-2.4,3.3-3.1,1.4-.8,3-1.1,4.8-1.1s3.5.4,4.9,1.1c1.4.8,2.5,1.8,3.4,3.1.8,1.3,1.2,2.9,1.2,4.6s-.4,3.3-1.2,4.6c-.8,1.3-1.9,2.4-3.4,3.1-1.4.8-3.1,1.2-4.9,1.2ZM155.8,83.4c.9,0,1.6-.2,2.3-.6.7-.4,1.2-.9,1.6-1.6.4-.7.6-1.6.6-2.6s-.2-1.9-.6-2.6c-.4-.7-.9-1.2-1.6-1.6-.7-.4-1.4-.6-2.2-.6s-1.6.2-2.2.6c-.7.4-1.2.9-1.6,1.6-.4.7-.6,1.6-.6,2.6s.2,1.8.6,2.6c.4.7.9,1.3,1.6,1.6.7.4,1.4.6,2.2.6Z"/>
    <path class="st0" d="M168.6,87.3v-17.2h4.8v4.9l-.7-1.4c.5-1.2,1.3-2.1,2.5-2.8s2.5-.9,4.1-.9v4.6c-.2,0-.4,0-.6,0-.2,0-.4,0-.5,0-1.4,0-2.5.4-3.4,1.2-.8.8-1.2,2-1.2,3.6v8.1h-5Z"/>
    <path class="st0" d="M182.3,87.3v-17.2h4.8v4.8l-.9-1.4c.6-1.2,1.5-2,2.7-2.7,1.2-.6,2.5-.9,3.9-.9s2.6.3,3.7.8c1.1.5,1.9,1.4,2.5,2.5.6,1.1.9,2.6.9,4.3v9.9h-5v-9.1c0-1.4-.3-2.4-.9-3.1-.6-.7-1.5-1-2.6-1s-1.5.2-2.1.5c-.6.3-1.1.8-1.5,1.5-.4.7-.5,1.5-.5,2.6v8.5h-5Z"/>
    <path class="st0" d="M213.1,87.5c-2,0-3.7-.4-5.2-1.2-1.5-.8-2.6-1.8-3.4-3.2-.8-1.3-1.2-2.9-1.2-4.6s.4-3.2,1.2-4.6c.8-1.3,1.9-2.4,3.3-3.2,1.4-.8,3-1.1,4.7-1.1s3.2.4,4.6,1.1c1.4.7,2.4,1.7,3.2,3.1.8,1.3,1.2,2.9,1.2,4.8s0,.4,0,.7c0,.2,0,.5,0,.7h-14v-2.9h11.4l-2,.9c0-.9-.1-1.7-.5-2.3s-.9-1.2-1.5-1.6c-.6-.4-1.4-.6-2.2-.6s-1.6.2-2.3.6c-.7.4-1.2.9-1.5,1.6s-.5,1.5-.5,2.4v.8c0,1,.2,1.8.6,2.5.4.7,1,1.2,1.8,1.6.7.4,1.6.6,2.7.6s1.7-.1,2.4-.4c.7-.3,1.3-.7,1.9-1.2l2.7,2.9c-.8.9-1.8,1.6-3,2.1-1.2.5-2.6.7-4.1.7Z"/>
    <path class="st0" d="M233,87.5c-1.9,0-3.5-.4-4.9-1.1-1.4-.8-2.6-1.8-3.4-3.2-.8-1.3-1.2-2.9-1.2-4.6s.4-3.3,1.2-4.6c.8-1.3,2-2.4,3.4-3.1s3.1-1.2,4.9-1.2,3.4.4,4.8,1.1c1.4.8,2.3,1.8,2.9,3.2l-3.8,2.1c-.5-.8-1-1.4-1.7-1.8-.7-.4-1.4-.6-2.2-.6s-1.6.2-2.3.6c-.7.4-1.2.9-1.6,1.6-.4.7-.6,1.6-.6,2.6s.2,1.9.6,2.6c.4.7.9,1.3,1.6,1.6.7.4,1.4.6,2.3.6s1.5-.2,2.2-.6c.7-.4,1.2-1,1.7-1.8l3.8,2.1c-.6,1.4-1.6,2.4-2.9,3.2-1.4.8-2.9,1.2-4.8,1.2Z"/>
    <path class="st0" d="M251.9,87.5c-2,0-3.7-.4-5.2-1.2-1.5-.8-2.6-1.8-3.4-3.2-.8-1.3-1.2-2.9-1.2-4.6s.4-3.2,1.2-4.6c.8-1.3,1.9-2.4,3.3-3.2,1.4-.8,3-1.1,4.7-1.1s3.2.4,4.6,1.1c1.4.7,2.4,1.7,3.2,3.1.8,1.3,1.2,2.9,1.2,4.8s0,.4,0,.7c0,.2,0,.5,0,.7h-14v-2.9h11.4l-2,.9c0-.9-.1-1.7-.5-2.3s-.9-1.2-1.5-1.6c-.6-.4-1.4-.6-2.2-.6s-1.6.2-2.3.6c-.7.4-1.2.9-1.5,1.6s-.5,1.5-.5,2.4v.8c0,1,.2,1.8.6,2.5.4.7,1,1.2,1.8,1.6.7.4,1.6.6,2.7.6s1.7-.1,2.4-.4c.7-.3,1.3-.7,1.9-1.2l2.7,2.9c-.8.9-1.8,1.6-3,2.1-1.2.5-2.6.7-4.1.7Z"/>
    <path class="st0" d="M271,87.5c-1.6,0-3.1-.4-4.4-1.1-1.3-.7-2.3-1.8-3.1-3.1-.7-1.3-1.1-2.9-1.1-4.7s.4-3.3,1.1-4.7c.7-1.3,1.8-2.4,3.1-3.1,1.3-.7,2.8-1.1,4.4-1.1s2.7.3,3.8,1c1.1.6,1.9,1.6,2.5,2.9.6,1.3.9,3,.9,5s-.3,3.7-.9,5c-.6,1.3-1.4,2.3-2.5,2.9-1.1.6-2.4.9-3.9.9ZM271.8,83.4c.8,0,1.6-.2,2.2-.6.7-.4,1.2-.9,1.6-1.6.4-.7.6-1.6.6-2.6s-.2-1.9-.6-2.6c-.4-.7-.9-1.2-1.6-1.6-.7-.4-1.4-.6-2.2-.6s-1.5.2-2.2.6c-.7.4-1.2.9-1.6,1.6-.4.7-.6,1.6-.6,2.6s.2,1.8.6,2.6c.4.7.9,1.3,1.6,1.6.7.4,1.4.6,2.2.6ZM276.4,87.3v-8.6c0,0-.2-5.1-.2-5.1v-10h5v23.7h-4.8Z"/>
    <path class="st0" d="M293.9,87.5c-1.8,0-3.4-.4-4.8-1.2-1.4-.8-2.5-1.8-3.3-3.2-.8-1.3-1.2-2.9-1.2-4.6s.4-3.3,1.2-4.6c.8-1.3,1.9-2.4,3.3-3.1,1.4-.8,3-1.1,4.8-1.1s3.5.4,4.9,1.1c1.4.8,2.5,1.8,3.4,3.1.8,1.3,1.2,2.9,1.2,4.6s-.4,3.3-1.2,4.6c-.8,1.3-1.9,2.4-3.4,3.1-1.4.8-3.1,1.2-4.9,1.2ZM293.9,83.4c.9,0,1.6-.2,2.3-.6.7-.4,1.2-.9,1.6-1.6.4-.7.6-1.6.6-2.6s-.2-1.9-.6-2.6c-.4-.7-.9-1.2-1.6-1.6-.7-.4-1.4-.6-2.2-.6s-1.6.2-2.2.6c-.7.4-1.2.9-1.6,1.6-.4.7-.6,1.6-.6,2.6s.2,1.8.6,2.6c.4.7.9,1.3,1.6,1.6.7.4,1.4.6,2.2.6Z"/>
    <path class="st0" d="M306.7,87.3v-17.2h4.8v4.9l-.7-1.4c.5-1.2,1.3-2.1,2.5-2.8s2.5-.9,4.1-.9v4.6c-.2,0-.4,0-.6,0-.2,0-.4,0-.5,0-1.4,0-2.5.4-3.4,1.2-.8.8-1.2,2-1.2,3.6v8.1h-5Z"/>
    <path class="st0" d="M319.3,92.2l2.1-7.7.7,2.9c-.9,0-1.6-.3-2.2-.8-.6-.5-.9-1.3-.9-2.2s.3-1.7.9-2.3c.6-.6,1.3-.8,2.2-.8s1.6.3,2.2.9c.6.6.9,1.3.9,2.3s0,.5,0,.8c0,.3-.1.6-.2.9-.1.4-.3.8-.6,1.4l-1.8,4.6h-3.2Z"/>
    <path class="st0" d="M345,87.5c-1.6,0-3.1-.4-4.4-1.1-1.3-.7-2.3-1.8-3.1-3.1-.7-1.3-1.1-2.9-1.1-4.7s.4-3.3,1.1-4.7c.7-1.3,1.8-2.4,3.1-3.1,1.3-.7,2.8-1.1,4.4-1.1s2.7.3,3.8,1c1.1.6,1.9,1.6,2.5,2.9.6,1.3.9,3,.9,5s-.3,3.7-.9,5c-.6,1.3-1.4,2.3-2.5,2.9-1.1.6-2.4.9-3.9.9ZM345.8,83.4c.8,0,1.6-.2,2.2-.6.7-.4,1.2-.9,1.6-1.6s.6-1.6.6-2.6-.2-1.9-.6-2.6-.9-1.2-1.6-1.6c-.7-.4-1.4-.6-2.2-.6s-1.5.2-2.2.6c-.7.4-1.2.9-1.6,1.6-.4.7-.6,1.6-.6,2.6s.2,1.8.6,2.6c.4.7.9,1.3,1.6,1.6.7.4,1.4.6,2.2.6ZM350.4,87.3v-8.6c0,0-.2-5.1-.2-5.1v-10h5v23.7h-4.8Z"/>
    <path class="st0" d="M362.3,67.7c-.9,0-1.7-.3-2.3-.8-.6-.5-.9-1.2-.9-2s.3-1.5.9-2c.6-.5,1.3-.8,2.3-.8s1.7.3,2.3.8c.6.5.9,1.1.9,1.9s-.3,1.5-.9,2.1-1.3.8-2.3.8ZM359.8,87.3v-17.2h5v17.2h-5Z"/>
    <path class="st0" d="M369.4,87.3v-17.2h4.8v4.9l-.7-1.4c.5-1.2,1.3-2.1,2.5-2.8,1.1-.6,2.5-.9,4.1-.9v4.6c-.2,0-.4,0-.6,0-.2,0-.4,0-.5,0-1.4,0-2.5.4-3.4,1.2-.8.8-1.2,2-1.2,3.6v8.1h-5Z"/>
    <path class="st0" d="M391.4,87.5c-2,0-3.7-.4-5.2-1.2-1.5-.8-2.6-1.8-3.4-3.2-.8-1.3-1.2-2.9-1.2-4.6s.4-3.2,1.2-4.6c.8-1.3,1.9-2.4,3.3-3.2,1.4-.8,3-1.1,4.7-1.1s3.2.4,4.6,1.1,2.4,1.7,3.2,3.1c.8,1.3,1.2,2.9,1.2,4.8s0,.4,0,.7c0,.2,0,.5,0,.7h-14v-2.9h11.4l-2,.9c0-.9-.1-1.7-.5-2.3-.4-.7-.9-1.2-1.5-1.6-.6-.4-1.4-.6-2.2-.6s-1.6.2-2.3.6c-.7.4-1.2.9-1.5,1.6-.4.7-.5,1.5-.5,2.4v.8c0,1,.2,1.8.6,2.5s1,1.2,1.8,1.6c.7.4,1.6.6,2.7.6s1.7-.1,2.4-.4,1.3-.7,1.9-1.2l2.7,2.9c-.8.9-1.8,1.6-3,2.1-1.2.5-2.6.7-4.1.7Z"/>
    <path class="st0" d="M401,73.9v-3.8h11.9v3.8h-11.9ZM410.1,87.5c-2,0-3.6-.5-4.7-1.6-1.1-1-1.7-2.6-1.7-4.6v-15.1h5v15c0,.7.2,1.3.6,1.7.4.4.9.6,1.5.6s1.5-.2,2-.6l1.3,3.5c-.5.4-1.1.6-1.8.8-.7.2-1.5.3-2.2.3Z"/>
    <path class="st0" d="M421.7,87.5c-1.3,0-2.5-.2-3.4-.7-1-.5-1.7-1.1-2.2-1.9-.5-.8-.8-1.7-.8-2.7s.3-1.9.8-2.7c.5-.8,1.3-1.4,2.4-1.8s2.5-.6,4.3-.6h4.5v2.9h-4c-1.2,0-2,.2-2.4.6-.4.4-.7.9-.7,1.4s.3,1.1.8,1.5,1.2.6,2,.6,1.6-.2,2.3-.6c.7-.4,1.1-1,1.4-1.8l.8,2.3c-.4,1.1-1,1.9-2,2.5s-2.2.9-3.7.9ZM427,87.3v-3.4l-.3-.7v-6c0-1.1-.3-1.9-1-2.5-.7-.6-1.6-.9-3-.9s-1.8.1-2.7.4c-.9.3-1.6.7-2.3,1.2l-1.8-3.5c.9-.7,2.1-1.2,3.4-1.6,1.3-.4,2.7-.5,4-.5,2.6,0,4.7.6,6.1,1.9,1.5,1.2,2.2,3.2,2.2,5.8v9.8h-4.7Z"/>
    <path class="st0" d="M436.2,87.3v-17.2h4.8v4.7l-.9-1.3c.6-1.2,1.4-2.1,2.5-2.7s2.4-.9,3.7-.9,3,.4,4.2,1.2c1.2.8,2,2,2.4,3.7l-1.8-.5c.6-1.3,1.5-2.4,2.8-3.2s2.7-1.2,4.4-1.2,2.6.3,3.6.8c1.1.5,1.9,1.4,2.5,2.5.6,1.1.9,2.6.9,4.3v9.9h-5v-9.1c0-1.4-.3-2.4-.8-3.1-.6-.7-1.4-1-2.4-1s-1.4.2-2,.5c-.6.3-1,.8-1.3,1.5-.3.7-.5,1.5-.5,2.5v8.6h-5v-9.1c0-1.4-.3-2.4-.8-3.1-.6-.7-1.4-1-2.4-1s-1.4.2-2,.5-1,.8-1.3,1.5c-.3.7-.5,1.5-.5,2.5v8.6h-5Z"/>
    <path class="st0" d="M478.4,87.5c-2,0-3.7-.4-5.2-1.2-1.5-.8-2.6-1.8-3.4-3.2-.8-1.3-1.2-2.9-1.2-4.6s.4-3.2,1.2-4.6c.8-1.3,1.9-2.4,3.3-3.2,1.4-.8,3-1.1,4.7-1.1s3.2.4,4.6,1.1,2.4,1.7,3.2,3.1c.8,1.3,1.2,2.9,1.2,4.8s0,.4,0,.7c0,.2,0,.5,0,.7h-14v-2.9h11.4l-2,.9c0-.9-.1-1.7-.5-2.3-.4-.7-.9-1.2-1.5-1.6-.6-.4-1.4-.6-2.2-.6s-1.6.2-2.3.6c-.7.4-1.2.9-1.5,1.6-.4.7-.5,1.5-.5,2.4v.8c0,1,.2,1.8.6,2.5s1,1.2,1.8,1.6c.7.4,1.6.6,2.7.6s1.7-.1,2.4-.4,1.3-.7,1.9-1.2l2.7,2.9c-.8.9-1.8,1.6-3,2.1-1.2.5-2.6.7-4.1.7Z"/>
    <path class="st0" d="M490.1,87.3v-17.2h4.8v4.8l-.9-1.4c.6-1.2,1.5-2,2.7-2.7,1.2-.6,2.5-.9,3.9-.9s2.6.3,3.7.8c1.1.5,1.9,1.4,2.5,2.5.6,1.1.9,2.6.9,4.3v9.9h-5v-9.1c0-1.4-.3-2.4-.9-3.1-.6-.7-1.5-1-2.6-1s-1.5.2-2.1.5c-.6.3-1.1.8-1.5,1.5-.4.7-.5,1.5-.5,2.6v8.5h-5Z"/>
    <path class="st0" d="M510.1,73.9v-3.8h11.9v3.8h-11.9ZM519.2,87.5c-2,0-3.6-.5-4.7-1.6-1.1-1-1.7-2.6-1.7-4.6v-15.1h5v15c0,.7.2,1.3.6,1.7.4.4.9.6,1.5.6s1.5-.2,2-.6l1.3,3.5c-.5.4-1.1.6-1.8.8-.7.2-1.5.3-2.2.3Z"/>
    <path class="st0" d="M534.1,87.5c-2,0-3.7-.4-5.2-1.2-1.5-.8-2.6-1.8-3.4-3.2-.8-1.3-1.2-2.9-1.2-4.6s.4-3.2,1.2-4.6c.8-1.3,1.9-2.4,3.3-3.2,1.4-.8,3-1.1,4.7-1.1s3.2.4,4.6,1.1,2.4,1.7,3.2,3.1c.8,1.3,1.2,2.9,1.2,4.8s0,.4,0,.7c0,.2,0,.5,0,.7h-14v-2.9h11.4l-2,.9c0-.9-.1-1.7-.5-2.3-.4-.7-.9-1.2-1.5-1.6-.6-.4-1.4-.6-2.2-.6s-1.6.2-2.3.6c-.7.4-1.2.9-1.5,1.6-.4.7-.5,1.5-.5,2.4v.8c0,1,.2,1.8.6,2.5s1,1.2,1.8,1.6c.7.4,1.6.6,2.7.6s1.7-.1,2.4-.4,1.3-.7,1.9-1.2l2.7,2.9c-.8.9-1.8,1.6-3,2.1-1.2.5-2.6.7-4.1.7Z"/>
    <path class="st0" d="M560.1,87.5c-1.3,0-2.5-.2-3.4-.7-1-.5-1.7-1.1-2.2-1.9-.5-.8-.8-1.7-.8-2.7s.3-1.9.8-2.7c.5-.8,1.3-1.4,2.4-1.8s2.5-.6,4.3-.6h4.5v2.9h-4c-1.2,0-2,.2-2.4.6-.4.4-.7.9-.7,1.4s.3,1.1.8,1.5,1.2.6,2,.6,1.6-.2,2.3-.6c.7-.4,1.1-1,1.4-1.8l.8,2.3c-.4,1.1-1,1.9-2,2.5s-2.2.9-3.7.9ZM565.4,87.3v-3.4l-.3-.7v-6c0-1.1-.3-1.9-1-2.5-.7-.6-1.6-.9-3-.9s-1.8.1-2.7.4c-.9.3-1.6.7-2.3,1.2l-1.8-3.5c.9-.7,2.1-1.2,3.4-1.6,1.3-.4,2.7-.5,4-.5,2.6,0,4.7.6,6.1,1.9,1.5,1.2,2.2,3.2,2.2,5.8v9.8h-4.7Z"/>
    <path class="st0" d="M589.4,87.5c-1.5,0-2.9-.2-4.2-.5-1.3-.4-2.4-.8-3.2-1.3l1.6-3.6c.8.5,1.8.9,2.8,1.2,1.1.3,2.1.5,3.2.5s2-.1,2.4-.4c.5-.3.7-.7.7-1.2s-.2-.7-.6-.9c-.4-.2-.9-.4-1.5-.5-.6-.1-1.3-.2-2-.3-.7-.1-1.5-.3-2.2-.4-.7-.2-1.4-.5-2-.8-.6-.4-1.1-.8-1.5-1.5-.4-.6-.6-1.4-.6-2.4s.3-2.1,1-2.9c.6-.8,1.5-1.5,2.7-2,1.2-.5,2.6-.7,4.3-.7s2.4.1,3.6.4,2.2.6,3.1,1.1l-1.7,3.6c-.8-.5-1.6-.8-2.5-1-.8-.2-1.6-.3-2.4-.3-1.2,0-2,.1-2.5.4-.5.3-.8.7-.8,1.2s.2.8.6,1c.4.2.9.4,1.5.5.6.1,1.3.2,2,.3.7.1,1.5.3,2.2.4.7.2,1.4.5,2,.8.6.4,1.1.8,1.5,1.5.4.6.6,1.4.6,2.4s-.3,2-1,2.8c-.6.8-1.6,1.5-2.8,1.9-1.2.5-2.7.7-4.4.7Z"/>
    <path class="st0" d="M607.8,87.5c-1.5,0-2.7-.3-3.8-.8s-2-1.4-2.6-2.6c-.6-1.2-.9-2.6-.9-4.4v-9.7h5v9c0,1.5.3,2.5.9,3.2.6.7,1.5,1,2.6,1s1.5-.2,2-.5c.6-.3,1.1-.9,1.4-1.5.4-.7.5-1.5.5-2.6v-8.5h5v17.2h-4.7v-4.8l.9,1.4c-.6,1.2-1.5,2.1-2.6,2.7s-2.3.9-3.6.9Z"/>
    <path class="st0" d="M627.9,87.5c-1.3,0-2.5-.2-3.4-.7-1-.5-1.7-1.1-2.2-1.9-.5-.8-.8-1.7-.8-2.7s.3-1.9.8-2.7c.5-.8,1.3-1.4,2.4-1.8s2.5-.6,4.3-.6h4.5v2.9h-4c-1.2,0-2,.2-2.4.6-.4.4-.7.9-.7,1.4s.3,1.1.8,1.5,1.2.6,2,.6,1.6-.2,2.3-.6c.7-.4,1.1-1,1.4-1.8l.8,2.3c-.4,1.1-1,1.9-2,2.5s-2.2.9-3.7.9ZM633.1,87.3v-3.4l-.3-.7v-6c0-1.1-.3-1.9-1-2.5-.7-.6-1.6-.9-3-.9s-1.8.1-2.7.4c-.9.3-1.6.7-2.3,1.2l-1.8-3.5c.9-.7,2.1-1.2,3.4-1.6,1.3-.4,2.7-.5,4-.5,2.6,0,4.7.6,6.1,1.9,1.5,1.2,2.2,3.2,2.2,5.8v9.8h-4.7Z"/>
    <path class="st0" d="M659.7,87.5c-1.9,0-3.5-.4-4.9-1.1-1.4-.8-2.6-1.8-3.4-3.2s-1.2-2.9-1.2-4.6.4-3.3,1.2-4.6c.8-1.3,2-2.4,3.4-3.1,1.4-.8,3.1-1.2,4.9-1.2s3.4.4,4.8,1.1c1.4.8,2.3,1.8,2.9,3.2l-3.8,2.1c-.5-.8-1-1.4-1.7-1.8-.7-.4-1.4-.6-2.2-.6s-1.6.2-2.3.6c-.7.4-1.2.9-1.6,1.6-.4.7-.6,1.6-.6,2.6s.2,1.9.6,2.6c.4.7.9,1.3,1.6,1.6.7.4,1.4.6,2.3.6s1.5-.2,2.2-.6c.7-.4,1.2-1,1.7-1.8l3.8,2.1c-.6,1.4-1.6,2.4-2.9,3.2-1.4.8-2.9,1.2-4.8,1.2Z"/>
    <path class="st0" d="M675.6,87.5c-1.3,0-2.5-.2-3.4-.7-1-.5-1.7-1.1-2.2-1.9-.5-.8-.8-1.7-.8-2.7s.3-1.9.8-2.7c.5-.8,1.3-1.4,2.4-1.8s2.5-.6,4.3-.6h4.5v2.9h-4c-1.2,0-2,.2-2.4.6-.4.4-.7.9-.7,1.4s.3,1.1.8,1.5,1.2.6,2,.6,1.6-.2,2.3-.6c.7-.4,1.1-1,1.4-1.8l.8,2.3c-.4,1.1-1,1.9-2,2.5s-2.2.9-3.7.9ZM680.8,87.3v-3.4l-.3-.7v-6c0-1.1-.3-1.9-1-2.5-.7-.6-1.6-.9-3-.9s-1.8.1-2.7.4c-.9.3-1.6.7-2.3,1.2l-1.8-3.5c.9-.7,2.1-1.2,3.4-1.6,1.3-.4,2.7-.5,4-.5,2.6,0,4.7.6,6.1,1.9,1.5,1.2,2.2,3.2,2.2,5.8v9.8h-4.7Z"/>
    <path class="st0" d="M695.8,87.5c-1.5,0-2.9-.2-4.2-.5-1.3-.4-2.4-.8-3.2-1.3l1.6-3.6c.8.5,1.8.9,2.8,1.2,1.1.3,2.1.5,3.2.5s2-.1,2.4-.4c.5-.3.7-.7.7-1.2s-.2-.7-.6-.9c-.4-.2-.9-.4-1.5-.5-.6-.1-1.3-.2-2-.3-.7-.1-1.5-.3-2.2-.4-.7-.2-1.4-.5-2-.8-.6-.4-1.1-.8-1.5-1.5-.4-.6-.6-1.4-.6-2.4s.3-2.1,1-2.9c.6-.8,1.5-1.5,2.7-2,1.2-.5,2.6-.7,4.3-.7s2.4.1,3.6.4,2.2.6,3.1,1.1l-1.7,3.6c-.8-.5-1.6-.8-2.5-1-.8-.2-1.6-.3-2.4-.3-1.2,0-2,.1-2.5.4-.5.3-.8.7-.8,1.2s.2.8.6,1c.4.2.9.4,1.5.5.6.1,1.3.2,2,.3.7.1,1.5.3,2.2.4.7.2,1.4.5,2,.8.6.4,1.1.8,1.5,1.5.4.6.6,1.4.6,2.4s-.3,2-1,2.8c-.6.8-1.6,1.5-2.8,1.9-1.2.5-2.7.7-4.4.7Z"/>
    <path class="st0" d="M712.3,87.5c-1.3,0-2.5-.2-3.4-.7-1-.5-1.7-1.1-2.2-1.9-.5-.8-.8-1.7-.8-2.7s.3-1.9.8-2.7c.5-.8,1.3-1.4,2.4-1.8s2.5-.6,4.3-.6h4.5v2.9h-4c-1.2,0-2,.2-2.4.6-.4.4-.7.9-.7,1.4s.3,1.1.8,1.5,1.2.6,2,.6,1.6-.2,2.3-.6c.7-.4,1.1-1,1.4-1.8l.8,2.3c-.4,1.1-1,1.9-2,2.5s-2.2.9-3.7.9ZM717.6,87.3v-3.4l-.3-.7v-6c0-1.1-.3-1.9-1-2.5-.7-.6-1.6-.9-3-.9s-1.8.1-2.7.4c-.9.3-1.6.7-2.3,1.2l-1.8-3.5c.9-.7,2.1-1.2,3.4-1.6,1.3-.4,2.7-.5,4-.5,2.6,0,4.7.6,6.1,1.9,1.5,1.2,2.2,3.2,2.2,5.8v9.8h-4.7Z"/>
  </g>
</svg>